<?xml version="1.0" encoding="utf-8"?>
<!-- Generator: Adobe Illustrator 23.1.0, SVG Export Plug-In . SVG Version: 6.00 Build 0)  -->
<svg version="1.1" id="Layer_1" xmlns="http://www.w3.org/2000/svg" xmlns:xlink="http://www.w3.org/1999/xlink" x="0px" y="0px"
	 viewBox="0 0 85 54.9" style="enable-background:new 0 0 85 54.9;" xml:space="preserve">
<style type="text/css">
	.st0{fill-rule:evenodd;clip-rule:evenodd;fill:#005EB8;}
	.st1{fill-rule:evenodd;clip-rule:evenodd;fill:#FFFFFF;}
</style>
<rect x="-0.3" y="0" class="st0" width="85.5" height="54.9"/>
<title>halifax_logo</title>
<g id="Page-1">
	<g id="Halifax-logo">
		<g id="Halifax">
			<polyline id="Fill-1" class="st1" points="46.3,17.6 32.2,2.8 4.3,2.8 19.7,17.6 46.3,17.6 			"/>
			<polyline id="Fill-3" class="st1" points="19.7,37.2 4.3,52.1 32.2,52.1 46.3,37.2 19.7,37.2 			"/>
			<polyline id="Fill-11" class="st1" points="52.8,2.8 44.1,11.8 49.6,17.6 65.3,17.6 80.7,2.8 52.8,2.8 			"/>
			<polyline id="Fill-13" class="st1" points="65.3,37.2 49.6,37.2 44.1,43 52.8,52.1 80.7,52.1 65.3,37.2 			"/>
			<polyline id="Fill-5" class="st1" points="12.7,26.2 7.9,26.2 7.9,20.4 4.6,20.4 4.6,34.5 7.9,34.5 7.9,29.1 12.7,29.1 
				12.7,34.5 16,34.5 16,20.4 12.7,20.4 12.7,26.2 			"/>
			<path id="Fill-9" class="st1" d="M22.1,29.1l1.5-4.7l1.5,4.7H22.1z M21.8,20.4l-4.7,14h3.4l0.8-2.5h4.7l0.8,2.5h3.4l-4.7-14H21.8
				z"/>
			<polyline id="Fill-6" class="st1" points="34.5,20.4 31.2,20.4 31.2,34.5 39.5,34.5 39.5,31.5 34.5,31.5 34.5,20.4 			"/>
			<polygon id="Fill-7" class="st1" points="41.1,34.5 44.4,34.5 44.4,20.4 41.1,20.4 			"/>
			<polyline id="Fill-8" class="st1" points="49.5,23.4 55.7,23.4 55.7,20.4 46.3,20.4 46.3,34.5 49.5,34.5 49.5,29.1 54.7,29.1 
				54.7,26.2 49.5,26.2 49.5,23.4 			"/>
			<path id="Fill-10" class="st1" d="M59.8,29.1l1.5-4.7l1.5,4.7H59.8z M80,20.4h-3.7l-2.6,4.2L71,20.4h-3.7l4.6,7l-4.2,6.5
				l-4.6-13.5h-3.6l-4.7,14h3.4l0.8-2.5h4.7l0.8,2.5H71l2.7-4.2l2.6,4.2H80l-4.6-7L80,20.4L80,20.4z"/>
		</g>
	</g>
</g>
</svg>
