<?xml version="1.0" encoding="utf-8"?>
<svg id="master-artboard" viewBox="0 0 92.33120727539062 166.12664794921875" version="1.1" xmlns="http://www.w3.org/2000/svg" x="0px" y="0px" style="enable-background:new 0 0 336 235.2;" width="92.33120727539062px" height="166.12664794921875px"><rect id="ee-background" x="0" y="0" width="92.33120727539062" height="166.12664794921875" style="fill: white; fill-opacity: 0; pointer-events: none;"/>





















































































































































<path d="M 155.00860595703125 174.88699340820312 L 155.00860595703125 174.2469940185547 C 155.00860595703125 173.3336639404297 155.1486053466797 172.5836639404297 155.42860412597656 171.9969940185547 C 155.70860290527344 171.40365600585938 156.23193359375 170.78033447265625 156.9986114501953 170.1269989013672 C 158.05860900878906 169.22698974609375 158.72860717773438 168.55032348632812 159.00860595703125 168.0970001220703 C 159.2819366455078 167.64366149902344 159.41860961914062 167.0970001220703 159.41860961914062 166.45700073242188 C 159.41860961914062 165.66366577148438 159.16526794433594 165.05032348632812 158.65859985351562 164.6169891357422 C 158.14527893066406 164.18365478515625 157.40859985351562 163.9669952392578 156.4486083984375 163.9669952392578 C 155.82861328125 163.9669952392578 155.22528076171875 164.0369873046875 154.63861083984375 164.177001953125 C 154.05194091796875 164.3236541748047 153.38194274902344 164.5869903564453 152.62860107421875 164.9669952392578 L 151.93861389160156 163.38699340820312 C 153.4119415283203 162.61366271972656 154.9552764892578 162.22698974609375 156.568603515625 162.22698974609375 C 158.05526733398438 162.22698974609375 159.21527099609375 162.59365844726562 160.04861450195312 163.32699584960938 C 160.87527465820312 164.06033325195312 161.28860473632812 165.0970001220703 161.28860473632812 166.43699645996094 C 161.28860473632812 167.003662109375 161.21194458007812 167.503662109375 161.05860900878906 167.93699645996094 C 160.9052734375 168.37033081054688 160.68194580078125 168.78033447265625 160.38861083984375 169.1669921875 C 160.08860778808594 169.5536651611328 159.4452667236328 170.177001953125 158.45860290527344 171.0369873046875 C 157.67193603515625 171.7103271484375 157.15194702148438 172.27032470703125 156.8986053466797 172.7169952392578 C 156.64527893066406 173.16366577148438 156.5186004638672 173.75698852539062 156.5186004638672 174.4969940185547 L 156.5186004638672 174.88699340820312 L 155.00860595703125 174.88699340820312 M 154.42860412597656 178.3669891357422 C 154.42860412597656 177.30032348632812 154.8986053466797 176.76699829101562 155.83860778808594 176.76699829101562 C 156.2919464111328 176.76699829101562 156.64193725585938 176.90365600585938 156.88861083984375 177.177001953125 C 157.13526916503906 177.45033264160156 157.25860595703125 177.8470001220703 157.25860595703125 178.3669891357422 C 157.25860595703125 178.8669891357422 157.13194274902344 179.253662109375 156.87860107421875 179.52699279785156 C 156.63194274902344 179.80699157714844 156.2852783203125 179.94699096679688 155.83860778808594 179.94699096679688 C 155.43194580078125 179.94699096679688 155.09527587890625 179.8236541748047 154.82861328125 179.57699584960938 C 154.5619354248047 179.330322265625 154.42860412597656 178.927001953125 154.42860412597656 178.3669891357422 Z" transform="matrix(9.092177391052246, 0, 0, 9.092177391052246, -1378.18505859375, -1474.362060546875)" style="fill: rgb(255, 255, 255); white-space: pre; color: rgb(51, 51, 51); fill-opacity: 1; stroke: rgb(237, 237, 225); stroke-width: 0; paint-order: stroke; stroke-opacity: 0;"/></svg>