<?xml version="1.0" standalone="no"?>
<!DOCTYPE svg PUBLIC "-//W3C//DTD SVG 20010904//EN"
 "http://www.w3.org/TR/2001/REC-SVG-20010904/DTD/svg10.dtd">
<svg version="1.0" xmlns="http://www.w3.org/2000/svg"
 width="117.000000pt" height="75.000000pt" viewBox="0 0 117.000000 75.000000"
 preserveAspectRatio="xMidYMid meet">

<g transform="translate(0.000000,75.000000) scale(0.100000,-0.100000)"
fill="#000000" stroke="none">
<path d="M0 375 l0 -375 585 0 585 0 0 375 0 375 -585 0 -585 0 0 -375z m544
229 l98 -104 -183 0 -184 0 -110 105 -110 104 195 0 195 0 99 -105z m456 1
l-105 -105 -108 0 -109 0 -38 43 -39 42 62 63 61 62 191 0 190 0 -105 -105z
m-890 -175 c0 -39 1 -40 35 -40 34 0 35 1 35 40 0 33 3 40 20 40 19 0 20 -7
20 -100 0 -93 -1 -100 -20 -100 -16 0 -20 7 -20 35 0 33 -2 35 -35 35 -33 0
-35 -2 -35 -35 0 -28 -4 -35 -20 -35 -19 0 -20 7 -20 100 0 93 1 100 20 100
17 0 20 -7 20 -40z m272 -50 c15 -46 28 -90 28 -97 0 -21 -38 -15 -50 7 -6 12
-21 20 -35 20 -14 0 -29 -8 -35 -20 -12 -22 -50 -27 -50 -7 0 11 32 114 55
175 3 8 16 12 32 10 23 -3 29 -12 55 -88z m90 13 l3 -78 33 -3 c24 -2 32 -8
32 -23 0 -16 -7 -19 -55 -19 l-55 0 0 100 c0 93 1 100 20 100 17 0 19 -8 22
-77z m138 -23 l0 -100 -25 0 -25 0 0 100 0 100 25 0 25 0 0 -100z m150 75 c0
-22 -4 -25 -40 -25 -29 0 -40 -4 -40 -15 0 -10 11 -15 35 -15 31 0 35 -3 35
-25 0 -22 -4 -25 -35 -25 -33 0 -35 -2 -35 -35 0 -31 -3 -35 -25 -35 l-25 0 0
100 0 100 65 0 c63 0 65 -1 65 -25z m135 -68 l31 -88 28 41 27 41 -31 44 c-36
53 -36 55 -6 55 16 0 31 -10 44 -32 l20 -31 16 31 c12 23 24 32 41 32 31 0 31
-6 0 -52 -31 -46 -31 -54 0 -100 31 -45 31 -48 1 -48 -15 0 -30 10 -41 27
l-18 26 -19 -26 c-16 -22 -27 -27 -65 -27 -36 0 -46 4 -50 20 -7 28 -63 28
-70 0 -3 -13 -14 -20 -29 -20 -13 0 -24 3 -24 7 0 5 14 50 31 101 29 87 33 93
57 90 22 -3 29 -14 57 -91z m-352 -242 l-98 -105 -195 0 -195 0 110 104 110
105 183 0 183 1 -98 -105z m457 0 l105 -105 -190 0 -189 0 -63 62 -63 62 42
43 42 43 106 0 105 0 105 -105z"/>
<path d="M321 393 c-1 -6 -4 -18 -7 -27 -4 -11 -1 -16 10 -16 18 0 19 6 6 35
-5 11 -9 15 -9 8z"/>
<path d="M827 370 c-3 -13 0 -20 9 -20 15 0 19 26 5 34 -5 3 -11 -3 -14 -14z"/>
</g>
</svg>
